#!OML:ASF F:\VICON\USERDATA\INSTALL\rory3\rory3.ASF
:FULLY-SPECIFIED
:DEGREES
2644
root -14.3713 17.9179 12.0468 -174.127 150.432 -537.959
lowerback 11.1088 0.387964 -5.24839
upperback 2.27238 -0.109945 -1.03486
thorax -3.84191 0.00902946 1.89145
lowerneck -5.40651 -5.45205 -13.096
upperneck 42.9884 -7.64903 7.70559
head 17.7591 -4.12557 4.81945
rclavicle 3.1408e-014 7.15625e-015
rhumerus -25.7766 -5.48711 -84.5212
rradius 45.3386
rwrist 0.53842
rhand -16.6773 7.24742
rfingers 7.12502
rthumb 9.54667 -22.5163
lclavicle 3.1408e-014 7.15625e-015
lhumerus -36.3643 5.58935 83.7784
lradius 27.9724
lwrist -10.3497
lhand -18.9949 23.5913
lfingers 7.12502
lthumb 7.31007 53.445
rfemur -19.2404 8.81491 11.0181
rtibia 31.6363
rfoot -20.3364 0.674513
rtoes -0.98406
lfemur -16.9451 -8.14973 -20.593
ltibia 22.4705
lfoot -8.37301 -16.0328
ltoes 0.944327
2645
root -14.3196 17.9262 12.0131 -174.244 152.04 -537.881
lowerback 11.0745 0.284289 -5.48139
upperback 2.28442 -0.274152 -1.07831
thorax -3.79733 -0.0715801 2.00011
lowerneck -5.50486 -5.2116 -12.9815
upperneck 43.0746 -7.25653 7.48301
head 17.7433 -3.9872 4.75513
rclavicle 4.56211e-014 8.34896e-015
rhumerus -25.4043 -5.05831 -84.6851
rradius 45.2601
rwrist 0.535919
rhand -16.3264 7.17307
rfingers 7.12502
rthumb 9.88526 -22.5749
lclavicle 4.56211e-014 8.34896e-015
lhumerus -36.4824 5.67016 83.2653
lradius 28.749
lwrist -9.78296
lhand -19.4746 23.9096
lfingers 7.12502
lthumb 6.84699 53.7789
rfemur -19.3867 7.63882 11.068
rtibia 32.0981
rfoot -19.849 -0.869517
rtoes -0.589327
lfemur -16.485 -7.70041 -20.9528
ltibia 22.2531
lfoot -8.35037 -14.884
ltoes -0.0859964
2646
root -14.2665 17.9296 11.9789 -174.387 153.69 -537.89
lowerback 11.0648 0.390027 -5.48828
upperback 2.25508 -0.140943 -1.16457
thorax -3.83301 -0.00528448 1.89508
lowerneck -5.38474 -5.16897 -12.8091
upperneck 43.0724 -7.22144 7.32301
head 17.6809 -3.97694 4.64929
rclavicle 1.68967e-015 9.14409e-015
rhumerus -25.1647 -5.32856 -84.6144
rradius 45.1751
rwrist 0.411952
rhand -15.9965 6.99351
rfingers 7.12502
rthumb 10.2036 -22.739
lclavicle 1.68967e-015 9.14409e-015
lhumerus -36.4849 5.19981 82.8782
lradius 29.362
lwrist -9.02398
lhand -19.8978 24.2058
lfingers 7.12502
lthumb 6.43852 54.088
rfemur -19.5946 6.49818 11.1999
rtibia 32.628
rfoot -19.3877 -2.16541
rtoes 0.753927
lfemur -16.1239 -7.13851 -21.2654
ltibia 22.004
lfoot -8.12827 -13.7842
ltoes -0.463542
2647
root -14.2124 17.9396 11.9475 -174.493 155.412 -537.875
lowerback 10.9773 0.547099 -5.5085
upperback 2.24711 0.064857 -1.25599
thorax -3.80798 0.0951233 1.78195
lowerneck -5.295 -5.12796 -12.6995
upperneck 43.0899 -7.21231 7.2712
head 17.6539 -3.97433 4.60448
rclavicle 3.30976e-014 -7.95139e-015
rhumerus -24.9262 -5.50917 -84.4785
rradius 45.085
rwrist 0.364789
rhand -16.2143 6.7834
rfingers 7.12502
rthumb 9.99341 -22.9594
lclavicle 3.30976e-014 -7.95139e-015
lhumerus -36.3287 4.88001 82.4074
lradius 29.8119
lwrist -8.32093
lhand -20.1819 24.4523
lfingers 7.12502
lthumb 6.16423 54.3427
rfemur -19.8843 5.48829 11.3174
rtibia 33.2702
rfoot -18.8823 -3.45062
rtoes 2.81759
lfemur -15.7216 -6.40769 -21.6011
ltibia 21.6762
lfoot -7.90776 -12.8303
ltoes -0.00367104
2648
root -14.1576 17.9536 11.9135 -174.55 157.161 -537.763
lowerback 10.9322 0.588782 -5.62577
upperback 2.22152 0.104077 -1.32625
thorax -3.81267 0.115327 1.7689
lowerneck -5.39936 -4.94607 -12.6677
upperneck 43.2607 -6.90318 7.09925
head 17.7198 -3.87688 4.57141
rclavicle -1.58034e-014 -2.62396e-014
rhumerus -24.7263 -5.14592 -84.4658
rradius 45.007
rwrist 0.224238
rhand -16.5699 6.76792
rfingers 7.12502
rthumb 9.65032 -22.991
lclavicle -1.58034e-014 -2.62396e-014
lhumerus -36.3669 5.08466 81.7511
lradius 30.4578
lwrist -7.62946
lhand -20.3818 25.1645
lfingers 7.12502
lthumb 5.97117 55.0604
rfemur -20.2289 4.37396 11.3715
rtibia 34.0035
rfoot -18.2947 -4.64435
rtoes 3.48355
lfemur -15.2967 -5.70264 -22.0198
ltibia 21.3156
lfoot -7.70557 -11.8948
ltoes 0.666671
2649
root -14.1036 17.9646 11.8779 -174.614 158.836 -537.698
lowerback 10.9613 0.635444 -5.64008
upperback 2.13075 0.152897 -1.39745
thorax -3.92746 0.142808 1.69522
lowerneck -5.41217 -4.79389 -12.6006
upperneck 43.4339 -6.65696 6.92681
head 17.7729 -3.80105 4.5223
rclavicle 5.61567e-014 5.1684e-015
rhumerus -24.7108 -4.96011 -84.4655
rradius 44.9633
rwrist 0.0885886
rhand -16.813 7.03605
rfingers 7.12502
rthumb 9.41582 -22.7336
lclavicle 5.61567e-014 5.1684e-015
lhumerus -36.3938 5.44827 80.9925
lradius 30.885
lwrist -7.02295
lhand -20.7645 25.2314
lfingers 7.12502
lthumb 5.60172 55.1374
rfemur -20.5715 3.17438 11.5094
rtibia 34.8277
rfoot -17.7303 -5.81049
rtoes 4.24254
lfemur -14.9018 -5.28832 -22.3571
ltibia 20.9459
lfoot -7.5292 -10.7249
ltoes 0.517179
2650
root -14.053 17.973 11.8456 -174.707 160.538 -537.622
lowerback 10.9789 0.75309 -5.69005
upperback 2.0911 0.295388 -1.45691
thorax -3.98887 0.214913 1.64048
lowerneck -5.44959 -4.71675 -12.7226
upperneck 43.516 -6.55503 6.94388
head 17.8247 -3.79043 4.57057
rclavicle -7.2457e-014 7.95139e-015
rhumerus -24.6198 -5.20062 -84.3378
rradius 44.8907
rwrist 0.186116
rhand -16.5751 7.10137
rfingers 7.12502
rthumb 9.64533 -22.6578
lclavicle -7.2457e-014 7.95139e-015
lhumerus -36.1739 5.93484 80.2408
lradius 31.0863
lwrist -6.50808
lhand -20.9719 24.8326
lfingers 7.12502
lthumb 5.40152 54.7437
rfemur -20.8831 2.02444 11.6842
rtibia 35.7288
rfoot -17.1398 -7.02712
rtoes 6.5468
lfemur -14.4985 -4.97427 -22.6858
ltibia 20.6255
lfoot -7.40389 -9.37312
ltoes 0.630562
